# Blender v2.83.1 OBJ File: 'StarFox.blend'
# www.blender.org
mtllib StarFox.mtl
o Cube
v 1.000000 0.262354 -1.319456
v 1.000000 0.004199 -1.000000
v 1.511636 0.565459 0.295467
v 2.206228 0.616090 -1.090491
v 0.000000 0.131779 0.812071
v 0.000000 0.005307 1.167328
v 0.000000 0.107941 -1.000000
v 0.000000 0.950928 -1.000000
v -1.000000 0.262354 -1.319456
v -1.000000 0.004199 -1.000000
v 0.000000 0.262354 -1.660898
v -1.511636 0.565459 0.295467
v -2.206228 0.616090 -1.090491
vt 0.125000 0.750000
vt 0.375000 0.500000
vt 0.375000 0.500000
vt 0.250000 0.750000
vt 0.875000 0.750000
vt 0.875000 0.500000
vt 0.875000 0.750000
vt 0.375000 1.000000
vt 0.625000 1.000000
vt 0.375000 1.000000
vt 0.375000 0.500000
vt 0.125000 0.750000
vt 0.875000 0.750000
vt 0.875000 0.500000
vt 0.875000 0.500000
vt 0.375000 1.000000
vt 0.375000 1.000000
vt 0.625000 1.000000
vt 0.125000 0.750000
vt 0.125000 0.750000
vt 0.875000 0.750000
vt 0.625000 0.250000
vt 0.375000 0.250000
vt 0.625000 0.250000
vt 0.625000 0.250000
vt 0.750000 0.750000
vt 0.427128 0.875000
vt 0.625000 0.875000
vt 0.375000 0.875000
vn 0.4415 -0.8737 0.2042
vn -0.1031 -0.9936 -0.0470
vn -0.2631 0.9599 -0.0968
vn 0.3282 -0.7347 -0.5937
vn -0.4415 -0.8737 0.2042
vn 0.1031 -0.9936 -0.0470
vn 0.3009 0.9500 -0.0830
vn -0.3282 -0.7347 -0.5937
vn 0.4553 -0.8684 0.1964
vn -0.3009 0.9500 -0.0830
vn -0.4553 -0.8684 0.1964
vn 0.2631 0.9599 -0.0968
vn -0.1538 0.9309 0.3314
vn 0.1538 0.9309 0.3314
vn 0.6046 0.7258 0.3281
vn 0.2392 0.6724 -0.7005
vn -0.6046 0.7258 0.3281
vn -0.2392 0.6724 -0.7005
vn -0.0804 -0.7753 -0.6265
vn -0.0774 -0.9708 -0.2268
vn 0.0774 -0.9708 -0.2268
vn 0.0804 -0.7753 -0.6265
usemtl Material
s off
f 2/1/1 3/2/1 6/3/1
f 7/4/2 2/1/2 6/3/2
f 1/5/3 3/6/3 4/7/3
f 2/8/4 1/9/4 4/10/4
f 12/11/5 10/12/5 6/3/5
f 7/4/6 6/3/6 10/12/6
f 9/13/7 12/14/7 5/15/7
f 10/16/8 13/17/8 9/18/8
f 2/1/9 4/19/9 3/2/9
f 1/5/10 5/15/10 3/6/10
f 12/11/11 13/20/11 10/12/11
f 9/13/12 13/21/12 12/14/12
usemtl Material.001
f 5/22/13 6/23/13 3/24/13
f 5/22/14 12/25/14 6/23/14
usemtl Material.002
f 5/15/15 1/5/15 8/26/15
f 1/9/16 11/27/16 8/28/16
f 5/15/17 8/26/17 9/13/17
f 9/18/18 8/28/18 11/27/18
usemtl Material.003
f 7/29/19 1/9/19 2/8/19
f 7/29/20 9/18/20 11/27/20
f 7/29/21 11/27/21 1/9/21
f 7/29/22 10/16/22 9/18/22